<?xml version="1.0" encoding="UTF-8"?>
<svg width="812px" height="375px" viewBox="0 0 812 375" version="1.1" xmlns="http://www.w3.org/2000/svg" xmlns:xlink="http://www.w3.org/1999/xlink">
    <title>6213A5BF-2A4A-4C13-AF51-4A50D3478F36@1.5x</title>
    <g id="UI" stroke="none" stroke-width="1" fill="none" fill-rule="evenodd">
        <g id="Overlay-with-Frame" transform="translate(0.000000, -0.000000)">
            <path d="M812,5.68434189e-14 L812,375 L0,375 L2.29621275e-14,0 L812,5.68434189e-14 Z M622,56 L189,56 C187.343146,56 186,57.3431458 186,59 L186,59 L186,315 C186,316.656854 187.343146,318 189,318 L189,318 L622,318 C623.656854,318 625,316.656854 625,315 L625,315 L625,59 C625,57.3431458 623.656854,56 622,56 L622,56 Z" id="Combined-Shape" fill-opacity="0.6" fill="#000000"></path>
            <g id="Group-2" transform="translate(187.000000, 56.000000)" stroke="#2C9838" stroke-linecap="round" stroke-linejoin="round" stroke-width="6">
                <polyline id="Path-3" points="79 0 0 0 0 79"></polyline>
                <polyline id="Path-3-Copy" transform="translate(399.500000, 39.500000) scale(-1, 1) translate(-399.500000, -39.500000) " points="439 0 360 0 360 79"></polyline>
                <polyline id="Path-3-Copy-2" transform="translate(399.500000, 222.500000) scale(-1, -1) translate(-399.500000, -222.500000) " points="439 183 360 183 360 262"></polyline>
                <polyline id="Path-3-Copy-3" transform="translate(39.500000, 222.500000) scale(1, -1) translate(-39.500000, -222.500000) " points="79 183 0 183 0 262"></polyline>
            </g>
        </g>
    </g>
</svg>